<?xml version="1.0" encoding="utf-8"?>
<!-- Generator: Adobe Illustrator 25.1.0, SVG Export Plug-In . SVG Version: 6.00 Build 0)  -->
<svg version="1.1" id="Layer_1" xmlns="http://www.w3.org/2000/svg" xmlns:xlink="http://www.w3.org/1999/xlink" x="0px" y="0px"
	 viewBox="0 0 400 400" style="enable-background:new 0 0 400 400;" xml:space="preserve">
<style type="text/css">
	.st0{fill:#231F20;}
	.st1{fill:#FFFFFF;}
	.st2{fill:#EFCA4F;}
</style>
<path class="st0" d="M365.5,346.5c0.5-0.5,1-1.1,1.4-1.8c1.1-1.8,2.9-2.7,5-2.6c1.7,0.1,3.3,0.4,5,0.6c1.5,0.1,3,0.4,4.4,0.2
	c1-0.1,2.3-0.6,2.8-1.4c1.4-2,3.3-3.3,5.3-4.7c1.6-1.1,2.4-2.5,2.2-4.5c-0.2-2.5,0.6-4.7,2.4-6.4c1.4-1.3,1.6-2.7,1-4.3
	c-0.7-1.8-2-3-4-2.9c-2.3,0.1-4.2-1-6-2.3c-1.3-0.9-2.5-2-3.9-2.7c-1.7-0.8-2.4-1.9-2.5-3.6c-0.1-1.1-0.4-2.1-0.9-2.9
	c0.3-0.7,0.2-1.4-0.4-2c-0.7-0.8-1.5-1.6-2.5-2.1c-0.8-0.5-1.7-0.9-2.6-1.2c-0.5-0.7-0.9-1.4-1.3-2.1c-1.7-2.9-4.1-4.8-7.7-4.6
	c-0.9,0-1.8,0-2.7,0c-1.2,0.1-1.9-0.5-2.1-1.6c-0.3-1.3-0.4-2.8-0.9-4c-0.4-1-1-2.4-1.9-2.8c-1.9-0.9-3.9-1.7-6.2-1.5
	c-0.8,0.1-1.6,0.1-2.4,0.1c-0.1-0.2-0.2-0.3-0.3-0.5c0-0.1-0.1-0.1-0.1-0.2c-0.9-1.1-2-2.1-3.6-2.3c-2.3-0.3-4.6-0.5-6.9-1
	c-0.3-0.1-0.6-0.1-0.9-0.1c-3.3-1.7-6.9-2.4-10.8-2.3c-0.9,0-1.8,0-2.7-0.1c-1.3-0.1-1.9-0.8-2.4-2.1c-1.1-3-2.5-6-3.9-8.9
	c-0.5-1-1.4-2.1-2.6-1.6c-2,0.9-3.9-0.1-5.8,0.1c-2.6,0.2-4.1-1-5.5-2.8c-1.5-1.9-3.3-3.5-5.5-4.3c-1.1-0.4-2.4-0.8-3.4-0.4
	c-0.8,0.3-1.5,0.5-2.3,0.8c0.4-6.2,0.9-12.3,1.8-18.5c1.2-8.7,2.7-17.3,3-26.1c0.2-4.6,0.3-9.3-0.1-13.9c-0.6-7.1-1.9-14-3.9-20.8
	c-0.7-2.6-1.1-5.2-1.5-7.8c-0.3-1.4-0.4-2.9,0.7-4.2c0.1-0.2,0.2-0.4,0.2-0.7c0.7-4.3,1.5-8.6,2.1-12.9c0.7-5.2,1.4-10.4,1.9-15.5
	c0.3-2.9,0.6-5.8,0.7-8.7c0.1-3.5-1.4-6.5-3.7-9.1c-1.3-1.5-2.8-2.7-4.6-3.6c-1.8-0.9-2.7-2.3-2.5-4.3c0-0.3,0-0.6,0-0.9
	c0-0.9,0.4-1.4,1.3-1.8c1.7-0.7,3.4-1.6,5-2.4c0.6-0.4,1.1-0.4,1.8,0c1.2,0.6,2.5,1.2,3.8,1.7c0.3,0.1,1,0.1,1.1-0.1
	c0.9-1.4,2.2-1.3,3.6-1c1.6,0.2,2.7-0.5,3.4-1.9c0.3-0.6,0.6-1.3,0.6-2c0-1.1-0.1-2.2-0.4-3.2c-0.4-1.3-0.1-2.2,0.9-3
	c0.7-0.5,1.4-1,2.1-1.6c2.2-1.8,2.1-3-0.1-4.6c-1-0.7-2-1.4-3-2.1c-1.2-0.9-1.4-1.6-0.8-3c0.2-0.6,0.6-1.3,0.9-1.9
	c0.4-0.8,0.9-1.6,1.3-2.5c0.7-1.7,0.2-3.3-1.4-4.1c-0.7-0.4-1.5-0.7-2.3-0.7c-3.5-0.3-3.1-0.2-4.5-3.3c-0.1-0.2-0.1-0.3-0.2-0.5
	c-0.4-0.9-1-1.3-1.9-1.7c-1.4-0.6-2.7-0.1-4,0.5c-1.9,1.1-3.7,2.4-5.1,4.1c-0.5,0.6-0.9,0.8-1.6,0.7c-2.5-0.3-5-0.1-7.4,0.5
	c-3.5,0.9-6.9,2.2-9.8,4.3c-0.9,0.6-1.6,1.5-2.2,2.4c-1.6,2-2.4,4.3-3,6.8c-0.5,2.1-1.2,4.2-2.8,5.9c-0.9,0.9-1.1,2.1-0.7,3.4
	c0.8,2.5,1.4,5.1,2.2,7.7c0.7,2.3,2.4,3.4,4.8,3.1c0.6-0.1,1.1-0.2,1.7-0.2c1.2-0.1,1.7,0.2,1.7,1.4c0,1.5-0.3,3.1-0.6,4.6
	c-0.1,0.5-0.7,1-1.1,1.2c-3.5,2-6.2,4.8-8.8,7.8c-1.6,1.8-3.4,3.5-5.2,5.2c-1.3,1.3-2.7,1.5-4.4,0.7c-3.6-1.7-7.4-3.2-10.9-5.1
	c-5-2.7-9.9-5.8-14.9-8.7c-1.4-0.8-2.8-1.6-4.2-2.5c-1.7-1.1-1.9-1.8-1.3-3.7c0.1-0.5,0.4-1,0.6-1.4c0.2-0.6,0.6-0.9,1.3-1
	c1.7-0.2,3.4-0.5,5-0.4c1.4,0.1,2.6-0.1,3.8-0.8c2.2-1.2,2.4-1.4,2.2-3.9c-0.4-3.6-0.8-7.1-1.3-10.7c-0.5-4.4-1.1-8.9-1.7-13.3
	c-0.3-2.3-0.9-4.6-2-6.6c-0.8-1.5-1.9-2.3-3.6-2.3c-3.3,0.1-6.6,0-9.9,0.2c-4.6,0.4-9.1,1-13.6,1.7c-5.7,0.9-11.3,1.9-16.9,3.1
	c-3.8,0.8-4.4,2-4.1,5.6c0.3,3,0.8,6,1.3,9c1.1,6.5,2.2,13,3.4,19.6c0.2,1.4,0.6,1.8,2.1,1.7c1.1,0,2.2-0.2,3.3-0.3
	c2-0.2,4-0.3,5.5,1.4c0,0,0.1,0.1,0.1,0.1c3.5,2.1,6.9,4.2,10.9,5.4c1.6,0.5,3.2,1.1,4.7,1.7c4.8,1.9,9.3,4.6,13.7,7.2
	c4.1,2.4,8,5.2,11.6,8.3c3.2,2.8,6.4,5.5,9.5,8.4c1.9,1.8,4.1,2.8,6.6,3.1c1,0.1,2,0,2.9,0c1.4,0,1.7,0.2,1.7,1.6
	c0,4.4,0.8,8.7,1.3,13c0.4,3.9,0.6,7.8,0.8,11.6c0.1,1.4-0.1,1.5-1.4,2c-1.5,0.5-3,1-4.5,1.5c-0.6,0.2-1.2,0.2-2,0.4
	c-0.2-0.9-0.5-1.7-0.6-2.4c-1.3-6.8-2.6-13.6-3.9-20.3c-0.5-2.7-1.2-5.3-2-7.9c-1-3.4-2.4-4.3-5.9-3.8c-1.3,0.2-2.5,0.4-3.8,0.6
	c-6.8,0.9-13.7,1.7-20.6,2.5c-8,1-15.9,1.8-23.9,2.8c-3.6,0.5-7.1,1.1-10.6,1.8c-0.7,0.1-1.4,0.5-2.1,0.8c-1.1,0.5-1.5,1.4-1.3,2.6
	c0.3,1.9,0.6,3.9,0.9,5.9c0.1,1,0.3,2.1,0.3,3.1c0,0.7-0.4,0.9-1,0.8c-0.6-0.1-1.1-0.4-1.7-0.4c-4.3,0-8.2-1.6-12-3.2
	c-0.9-0.4-1.5-1.1-1.8-2c-0.9-2.3-2-4.6-2.8-6.9c-1.2-3.7-3.4-6.7-5.6-9.8c-1.3-1.7-2.5-3.5-3.7-5.2c-1.9-2.8-2-5.9-1.3-9
	c0.3-1.4,1.1-2.3,2.4-3c1.8-0.8,3.5-1.9,4.7-3.5c1.7-2.3,3.1-4.7,2.6-7.7c-0.1-0.7-0.3-1.4-0.5-2c-0.4-1.3-0.3-2.6,0.2-3.9
	c1.1-2.5,1.7-5.2,1.1-8c-0.4-2-0.3-3.8,0.7-5.7c0.9-1.7,0.5-2.5-1.4-2.8c-2.3-0.4-4.7-0.5-7.1-0.7c-0.6-0.1-1.3-0.1-1.9-0.2
	c-1.7-0.5-3.4-1.2-5.2-1.6c-3.6-0.8-7.1-0.4-10.7,0.5c-0.3,0.1-0.5,0.2-0.8,0.4c-3.1,1.5-5.1,4.1-6.5,7c-1.1,2.2-1.8,4.7-2.4,7.1
	c-1.4,6-1.8,12-2,18.1c-0.1,5.5,0.3,10.9,0.9,16.3c0.3,2.7,0.4,5.3,0.6,8c0.3,3.5,1.4,4.6,4.8,4.8c0.2,0,0.5,0,0.7,0
	c1.5,0.1,1.6,0.2,2,1.7c1.5,6.5,2.9,12.9,4.4,19.4c0.3,1.2,0.4,2.4,0.6,3.6c0.2,1.3-0.2,2.3-1,3.4c-1.2,1.8-2.4,3.6-3.3,5.5
	c-2.8,5.9-5.2,11.9-6.9,18.2c-1,3.3-1.7,6.8-2.2,10.2c-1.2,7.7-1.1,15.5-0.7,23.3c0.5,10.5,0.2,21-1.8,31.4
	c-0.3,1.6-0.4,1.8-2.1,1.9c-2.8,0.2-5.7,0.4-8.5,0.6c-3.6,0.3-7.2,0.6-10.7,0.9c-3.2,0.3-6.1,1.2-8.8,2.9c-1.1,0.7-1.3,1.1-0.8,2.3
	c0.3,0.7,0.7,1.5,1.1,2.1c0.9,1.5,0.9,2-0.6,3c-1.1,0.7-2.3,1.4-3.6,1.8c-5.2,1.7-10.5,3.2-15.7,5c-2.4,0.8-4.9,1.4-7.1,2.6
	c-0.8,0.4-1.5,0.9-2.3,1.5c-0.1,0-0.1,0.1-0.2,0.1c-0.2,0-0.4-0.1-0.6-0.1c-3.1-0.6-5.9-0.2-8.6,1.2c-3.6,1.7-7.3,3.4-11.1,5.3
	c0.4,2.5-1.5,3.1-3.6,3.9c-1.9,0.7-4.1,1.5-5.3,3c-1.6,2-3.2,2.4-5.5,2.5c-3.9,0.2-7.2,1.8-8.4,5.8c-0.7,2.1-1.8,3.1-4,2.9
	c-1-0.1-1.9,0.3-2.9,0.5c-2.8,0.6-3.4,2.2-1.7,4.4c1.6,2.2,3.7,3.4,6.6,3.4c0.2,1.3,0.4,2.5,0.7,3.6c0.4,1.8,1,3.5,2.6,4.5
	c3.9,2.3,7.7,5,12.7,3.1c0.7-0.3,1.6-0.3,2.4-0.3c-0.1,0.2-0.2,0.3-0.3,0.5c-1.7,2.8-1,5.3,2.1,6.4c1.7,0.6,3.5,1.1,5.3,1.4
	c0.5,0.6,1.2,1,2.1,1.3H27.1c0.2,0.3,0.4,0.6,0.5,0.9c5.3,0.2,10.8,2.7,15.8-0.5c1.4,0.1,2.4,0.6,3,1.9c0.2,0.4,0.4,0.9,0.7,1.3
	c2.8,4.3,6,7.8,11.7,8c0.7,0,1.4,0.1,2,0.5c2.1,1.4,3.9,0.6,5.8-0.6c2.3-1.4,4.6-2.7,7-3.9c1.5-0.7,3.1-1.1,4.7-1.6
	c0.1,0.2,0.1,0.3,0.2,0.5c-2.7,1.3-5.2,2.5-7.7,3.7c3.6,1.3,7.8,3,11.2,3.3c2.7,4,5.4,4.9,11.1,3.7c1.7-0.3,3.2-0.4,4.6,0.2
	c1,0.4,2,0.7,3,0.8c0.3,0.1,0.5,0.1,0.8,0.2c-7.8,1.3-13.8,2.8-19.8,3.3c-15.9,1.3-16,1.1-17.7,4.5c7.8-0.4,15.4,0.2,22.6-1.3
	c7.6-1.7,14.8-3,22,0c0,0.7,0.1,1.4,0.1,2.1H86.3c4.1,6.2,11.6,0.2,14.7,7.4h-8.1c2.1,1.7,4.3,2.4,6.5,2.4c18,0.1,36-0.1,54.1,0.1
	c9.7,0.1,10,0.8,9.6,10.3c12.8,2.5,27-3.1,27-7.2c5.4-1.4,10.3-3.1,15.3-3.9c7.6-1.3,15.9-4.1,22.8-2.2c7.4,2.1,13.2,3.3,20-1
	c1.8-1.1,5,0,7.6,0.2c0.2,0,0.4,0.6,0.6,1c-0.5,0.4-1.1,0.8-1.6,1.2c-0.6,0.5-1.1,1-1.7,1.5c0.2,0.7,0.3,1.3,0.5,2
	c8.5-1.1,17-2.3,26.7-3.5c-2.1-2.3-3.4-3.6-5-5.2c1-0.2,2.1-0.3,3.1-0.4c4.3-0.5,8.7,0.1,13,0.1c1.8,0,3.7-0.3,5.5-0.4
	c0.9,0,2,0,2.8,0.4c1.6,0.8,3.1,0.5,4.4-0.5c1.3-1,2.6-2.1,3.8-3.3c0.9-0.8,1.8-1.2,3-0.7c5.1,1.8,10.5,1.5,15.7,2.5
	c0.9,0.2,1.9-0.2,2.9-0.5c1.8-0.4,3.6-0.9,5.4-1.3c1.1-0.3,2.1-0.4,3.2-0.7c1.5-0.4,2.4-1.4,2.5-2.9c0.1-1,0.2-2,0.2-2.9
	c0-1.6,0.6-2.6,2.3-2.9c1.7-0.3,3.5-0.7,5.2-1.2c1.4-0.4,2.8-0.8,4.1-1.5c2.9,0.2,5.8-0.4,8.6-3.1c0.5-0.5,2.5,0.9,3.8,0.8
	c8.8-0.2,17.6-0.5,26.3-1c1.1-0.1,3-1.9,3-2.9c0-2.6-0.4-5-1-7.4H365.5z M210.8,114.1c-0.3,0.3-0.8,0.5-1.2,0.4
	c-1.7-0.3-3.3-0.9-5.1-2.1c2.8-0.7,5.1-0.8,7.9-0.7C211.8,112.8,211.4,113.5,210.8,114.1z M94.2,314.6c-1,1.9-2.5,3.1-4.5,3.5
	c-1.5,0.3-3,0.5-4.4,0.6c-1.6,0.2-2.1,0.9-2.1,2.5c0,1.3,0.1,2.7,0.2,4c0.1,2.4-0.1,4.8-0.6,7.2c-0.4,1.7-0.8,2.1-2.5,2.1
	c-0.8,0-1.7,0-2.5-0.1c-1-0.1-1.5-0.6-1.5-1.6c0-0.2,0-0.5,0-0.7c0.2-1.6,0.1-3.1-0.3-4.7c-0.2-0.6-0.2-1.2-0.2-1.7
	c-0.1-5.1-0.1-10.1-0.2-15.2c0-2.5,0.1-5,0.1-7.5c0-0.9,0.3-1.7,1.1-2.1c0.9-0.4,1.8-0.9,2.8-1c2.6-0.1,5.2-0.2,7.7,0
	c1.9,0.1,3.7,1,5.2,2.2c1.6,1.2,2.3,3.1,2.5,5C95.5,309.6,95.5,312.2,94.2,314.6z M121.6,334.5c-1.6-0.2-3.3,0-4.9-0.7
	c-0.7-0.3-1.7-0.1-2.4,0.2c-2,0.6-4,0.5-5.9,0.1c-3.2-0.6-5.8-3.8-6.1-7.1c-0.2-1.9-0.3-3.8-0.4-5.7c0-1.2,0.2-2.5,0.2-3.7
	c0.1-1.6,0.1-3.2,0.1-4.7c0-1.2,0.5-1.6,1.7-1.6c1.1,0,2.1,0,3.2,0c1.2,0,1.8,0.6,1.7,1.9c-0.2,3.6-0.1,7.1,0,10.7
	c0,1.6,0.9,2.6,2.1,3.4c0.8,0.5,1.6,0.5,2.3-0.1c0.5-0.4,0.9-0.8,1.3-1.1c0.8-0.5,1.1-1.3,1.4-2.3c0.9-3.4,0.6-6.8,0.6-10.2
	c0-0.2,0-0.3,0-0.5c-0.1-2.7,0.2-3.1,2.8-3.2c1.2,0,2.5,0.1,3.7,0.2c0.7,1.2,0.5,2.1,0.5,3c0,6.4,0,12.8,0.1,19.2
	C123.7,334.1,123.2,334.7,121.6,334.5z M147.1,316.9c-2.2-0.6-4.1,0.5-6,1.2c-0.6,0.2-1,0.8-1.4,1.3c-0.5,0.6-0.8,1.3-1.3,1.8
	c-0.8,0.9-1,1.9-0.9,3c0.1,2.8,0.1,5.6,0.2,8.5c0,1.4-0.4,1.8-1.7,1.8c-1.2,0-2.5,0-3.7-0.1c-0.9-0.1-1.4-0.6-1.2-1.5
	c0.5-3.2,0.2-6.5,0.2-9.7c0.1-2.4,0.1-4.8,0-7.2c0-1.8-0.2-3.6-0.3-5.8c0.9-0.1,1.6-0.1,2.3-0.2c0.7,0,1.5,0.1,2.2,0
	c0.8-0.1,1.4,0.2,2,0.8c1.3,1.1,2.2,1.3,3.6,0.4c1-0.7,1.9-0.9,3-0.9c1,0,2-0.1,3,0c1.2,0,1.7,0.4,1.9,1.5c0.2,1.1,0.3,2.3,0.3,3.5
	C149.2,316.6,148.4,317.3,147.1,316.9z M164,174.6c1.3,0,2.5,0.1,3.8,0.2c2.6,0.1,5.2,0.2,7.8,0.3c0.8,0,1.3,0.4,1.5,1.2
	c0.4,2.6,0.8,5.2,1.2,8.3c-1-0.5-1.7-0.8-2.3-1.1c-3.3-1.5-6.6-3-9.9-4.6c-0.8-0.4-1.6-0.8-2.2-1.3c-0.4-0.3-0.8-0.8-1-1.4
	C162.4,175.1,162.7,174.6,164,174.6z M176.3,324.5c-0.5,3.1-2.3,5.1-5.3,5.9c-2,0.5-4,1.1-6.2,0.8c-0.2,0-0.5,0-0.7,0
	c-0.9,0.1-1.4,0.5-1.4,1.4c-0.1,0.7,0,1.5,0,2.2c0,1,0,2,0,3h0c0,1.3,0,2.7,0,4c0,0.6,0,1.2-0.1,1.7c-0.1,0.7-0.7,1.1-1.4,1.2
	c-1.2,0-2.5,0-3.7,0c-1.1-0.1-1.7-0.7-1.5-1.8c0.3-1.7,0.2-3.3-0.2-4.9c-0.1-0.6-0.1-1.2-0.1-1.7c0-4.7-0.1-9.5-0.1-14.2
	c0-1.2,0.1-2.5,0.1-3.7c0-1.3-0.2-2.6-0.3-4c-0.1-1.3,0.3-1.9,1.6-2.1c1-0.2,2-0.3,3-0.5c1.1-0.2,2,0.1,2.6,1.1
	c0.1,0.1,0.2,0.3,0.3,0.4c0.7,0.8,1.1,1,1.9,0.6c1.7-0.9,3.5-0.8,5.4-0.8c1.6,0,2.9,0.7,4.1,1.6c1.2,0.9,1.9,2,2,3.6
	C176.3,320.3,176.6,322.4,176.3,324.5z M202.2,330.8c-1.2,2.4-3.2,3.8-6.1,3.5c-0.6-0.1-1.2,0-1.7,0c-2,0-4,0-5.9-0.7
	c-1.8-0.7-3.1-2-3.7-3.8c-0.6-2.1-1.1-4.2-1-6.4c0-0.6,0-1.2,0.2-1.7c0.3-1.2,0.6-2.4,0.9-3.6c0.8-4,4.2-6,7.5-6.2
	c0.6,0,1.2,0,1.7,0c2.5-0.4,4.6,0.7,6.6,1.9c1.1,0.7,1.9,1.6,2.5,2.8c1,2,1.4,4.1,1.3,6.3C204.2,325.5,203.5,328.3,202.2,330.8z
	 M221.6,317.5c1.1,0.5,2.1,1,3.1,1.6c0.2,0.1,0.4,0.2,0.6,0.4c2.5,1.6,3.8,3.8,3.7,6.9c-0.1,2.4-0.6,4.6-2.4,6.3
	c-1.2,1.1-2.5,1.9-4.3,1.7c-0.6-0.1-1.2,0-1.7,0c0,0,0-0.1,0-0.1c-0.5,0-1,0-1.5,0c-3,0.2-4.8-1.5-6-4c-0.5-1.1-0.9-2.3-1.2-3.5
	c-0.2-0.9,0.4-1.6,1.3-1.7c0.9,0,1.8,0,2.7-0.1c1.2,0,2.2,0.2,2.7,1.4c0.5,1.3,1.7,1.5,2.9,1.6c0.6,0.1,1.1-0.4,1.2-1
	c0.2-1-0.1-1.8-1-2.4c-1.7-1.1-3.3-2.3-5-3.3c-2.1-1.2-3.5-2.8-3.3-5.4c0-0.4,0-0.8,0-1.2c0.1-3.4,1.7-5.5,4.9-6.8
	c3-1.2,5.9-0.8,8.7,0.6c0.2,0.1,0.3,0.1,0.4,0.2c1.1,0.9,2.5,1.7,2.4,3.3c-0.1,1.4-1.5,2.1-2.6,2.8c-0.9,0.5-1.7,0.4-2.6-0.2
	c-0.6-0.4-1.2-0.9-1.9-1.2c-0.4-0.2-1-0.2-1.5-0.2c-0.7,0-1.2,0.6-1.2,1.3C219.9,315.9,220.4,316.9,221.6,317.5z M235.1,215.3
	c-0.6,0-1.2,0.1-1.7,0.1c-5.8,0.1-11.5,1.1-17.3,1.6c-3.8,0.3-7.6,0.4-11.5,0.6c-4.2,0.2-8.5,0.2-12.7,0.4
	c-5.9,0.3-11.8,0.8-17.7,1.3c-1.9,0.2-3.8,0.7-5.6,1.2c-1.7,0.4-2.9,1.5-3.3,3.2c-0.4,2-0.9,4.1-0.9,6.2c-0.1,3.8,0,7.5,0,11.3
	c0.1,8.1,0.2,16.3,0.4,24.4c0,0.4,0,0.8-0.1,1.2c0,0.8-0.5,1.2-1.2,1.3c-3.6,0.2-7.2,0.4-10.8,0.5c-0.2,0-0.3-0.1-0.6-0.3
	c0.2-1.2,0.4-2.5,0.7-3.7c1.1-5.1,2.3-10.2,3.4-15.3c1-4.9,1.9-9.9,2.6-14.9c0.8-5.5,1.4-11,1.9-16.6c0.7-7.6,1.1-15.3,1.7-22.9
	c0.1-1.6,0.3-3.1,0.5-4.9c2,0.8,4.1,0.7,6,1.8c2.5,1.4,5,2.8,7.6,3.9c2.7,1.1,5.6,1.6,8.3,2.5c2.8,1,5.7,2,8.4,3.2
	c1.9,0.9,3.6,2,5.8,2.1c0.6,0,1.2,0.1,1.7,0c2.3-0.5,4.5-1,6.8-1.5c1.8-0.4,3.4-1.3,4.8-2.6c2.1-1.8,4.4-3.4,7.4-3.9
	c4-0.7,7.9-1.7,11.9-2.6c0.9-0.2,1.6-0.3,2.3,0.5c0.8,0.9,1.8,1.2,3,0.6c0.5-0.3,1.1-0.5,1.6-0.5c0.5,0,1.1,0,1.4,0.3
	c1.5,1.8,3.3,1.4,5.1,0.6c0.8-0.3,1.6-0.8,2.4-1.1c0.3-0.2,0.7-0.2,1.4-0.4c-0.3,0.7-0.4,1.1-0.6,1.4c-1.5,2.3-3.1,4.5-4.5,6.8
	c-1.1,1.7-2,3.5-3,5.3c-1.3,2.6-2.7,5.2-4,7.7C236.4,215,235.8,215.3,235.1,215.3z M257.3,320.4c-0.2,1.8-1.3,2.6-3.1,2.5
	c-1-0.1-2-0.1-3-0.1c0,0.1,0,0.1,0,0.2c-1.7-0.1-3.3-0.2-5-0.3c-0.2,0-0.3-0.1-0.5-0.1c-0.7,0-1.6-0.1-2,0.7
	c-0.4,0.9-0.3,1.9,0.4,2.6c1,1.1,2.3,2,3.9,2c1,0,2,0,3,0c0.5,0,1-0.1,1.5-0.2c1.9-0.3,2.6,0.2,2.9,2.4c0.2,1.7-0.2,2.5-1.8,3.1
	c-3.7,1.4-7.5,1.5-11.2,0c-1.3-0.5-2.5-1.4-3.4-2.4c-1-1.1-1.6-2.3-1.8-3.7c-0.5-3.1-0.7-6.1,0-9.1c0.5-2.2,1.9-3.7,3.8-4.7
	c1.8-1,3.8-1.7,6-1.4c0.6,0.1,1.2,0,1.7,0c2.3-0.2,4.2,0.8,6.1,1.9c1.4,0.8,2.1,2.1,2.4,3.6C257.3,318.2,257.4,319.4,257.3,320.4z
	 M256.3,267.7c-1.7-0.4-3.4-0.8-5.2-1.3c0-0.4,0-0.8,0-1.3c-0.1-5.4,0-10.8-0.1-16.2c0-1.9,0.7-3.5,1.7-4.9
	c4.1-6.1,7.4-12.6,10.8-19c0.7-1.3,1.6-2.5,2.4-3.8c0.1,0,0.3,0.1,0.4,0.1c0.5,2.4,0,4.7-0.1,7.1c-0.1,4.7-0.3,9.4-0.4,14.1
	c-0.1,3.1-0.1,6.3-0.1,9.4c0,4.7,0,9.5,0,14.2c-2.4,0-4.7,0.3-6.9,1.4C258.1,267.9,257.1,267.9,256.3,267.7z M282.5,311.3
	c-0.7,0.1-1.5,0.2-2.2,0.2c-0.8,0-1.3-0.3-1.4-1.1c-0.1-0.5-0.1-1-0.2-1.5c-0.3-1.2-1-2.1-2-2.7c-1.1-0.7-2.2-0.5-2.7,0.7
	c-0.5,1-0.9,2.2-1.1,3.3c-0.3,1.4-0.5,2.8-0.5,4.2c-0.1,1,0.4,1.5,1.5,1.6c0.4,0,0.8,0,1.2,0c0.5,0,1-0.1,1.5-0.1
	c0.9,0.1,1.5,0.7,1.5,1.4c0,0.9-0.6,1.7-1.4,1.8c-0.5,0.1-1,0-1.5-0.1c-2.2-0.2-2.9,0.4-2.9,2.6c0,3.2-0.1,6.3,0.4,9.5
	c0.1,0.5,0.1,1,0.1,1.5c0,1-0.6,1.7-1.5,1.7c-1.5,0.1-3,0.1-4.5,0.1c-0.6,0-1-0.5-1.2-1.1c0-0.2-0.1-0.3-0.1-0.5
	c-0.1-3.6-0.1-7.1-0.1-10.7c0-1.4-0.2-2.5-1.8-2.9c-0.4-0.1-0.7-0.4-1-0.7c-0.9-1.1-0.6-2.1,0.7-2.5c0.3-0.1,0.7-0.1,1-0.2
	c0.3-0.1,0.6-0.2,0.9-0.2c0.7-0.8,0.6-1.6,0.5-2.5c-0.3-2.3,0-4.5,0.3-6.7c0.4-2.2,1.3-4.1,3.2-5.4c1.1-0.8,2.3-1.2,3.7-1.2
	c1.5,0,3-0.1,4.5,0c2.7,0.1,4.7,1.4,6.3,3.5c0.4,0.5,0.6,1.2,0.7,1.8c0.2,1.3,0.2,2.7,0.2,4C284.5,310.7,284,311.2,282.5,311.3z
	 M309.7,315.5c-0.1,5.7-0.1,11.5-0.2,17.2c0,0.2,0,0.3,0,0.5c-0.1,0.8-0.5,1.3-1.2,1.3c-1.9-0.2-3.8,0.2-5.6-0.6
	c-0.6-0.3-1.3-0.4-1.9,0c-1.1,0.6-2.2,0.7-3.4,0.5c-0.2,0-0.5,0-0.7,0c-3.5,0.1-5.8-1.6-7.4-4.6c-0.9-1.8-1.4-3.7-1.3-5.8
	c0.1-1.8,0-3.7,0-5.5c0.1-2,0.2-4,0.4-6c0.1-0.8,0.7-1.3,1.5-1.3c1.1,0,2.1,0.1,3.2,0.1c0.4,0,0.8,0.2,1.2,0.3
	c0.6,0.3,1,0.8,0.8,1.4c-0.6,1.5-0.3,3.1-0.3,4.7c0,1.7,0,3.5,0,5.2c-0.1,1.9,1,3.1,2.2,4.2c0.5,0.5,1.2,0.6,1.9,0.3
	c0.7-0.4,1.6-0.7,2-1.4c1-1.5,2-3.1,2-5c0-3.1,0-6.2,0.1-9.2c0-0.5,0-1,0-1.5c0.4-0.2,0.5-0.4,0.6-0.4c1.5,0,3,0,4.5,0.1
	c1.4,0.1,1.7,0.5,1.7,1.9C309.8,313.2,309.7,314.3,309.7,315.5z M324.3,317.7L324.3,317.7c0,5,0,10,0,15c0,1.3-0.4,1.8-1.8,1.9
	c-1.2,0-2.5,0.1-3.7,0c-1.1,0-1.7-0.6-1.6-1.7c0.5-8.1,0.1-16.1,0.2-24.2c0-1.2,0.2-2.5,0.3-3.7c0-0.7,0-1.5,0-2.2
	c-0.1-1.3,0.5-2,1.7-1.9c1.4,0.1,2.8,0.3,4.2,0.4c0.6,0.1,1,0.6,1,1.2C324.4,307.5,324.4,312.6,324.3,317.7z"/>
<path class="st0" d="M83.1,306c-0.3,0-0.7,0.6-0.7,0.9c0,1.1,0,2.2,0.2,3.2c0.2,1.3,0.9,1.8,2.3,1.8c1,0,2-0.1,3.1-0.2
	c0.4-0.6,0.8-1.1,1.1-1.5c0.8-1.2,0.7-1.9-0.3-2.8C87.2,305.7,85.2,305.7,83.1,306z"/>
<path class="st0" d="M167.8,319.5c-1.2-0.4-2.4-0.5-3.7-0.2c-1.2,0.2-1.6,0.6-1.6,1.8c0,0.2,0,0.5,0,0.6c0,0.6,0,1.1,0.1,1.6
	c0.2,1.4,1.3,2.4,2.8,2.2c1.2-0.1,2.3-0.4,3.2-1.2c0.8-0.6,1.4-1.4,1.2-2.5C169.6,320.6,168.9,319.9,167.8,319.5z"/>
<path class="st0" d="M245.2,317.1c-0.6,0.6-0.8,1.5-0.6,2.3c0.2,0.8,1,1.1,1.7,1.2c0.6,0.1,1.2,0.1,1.7,0.1c0,0,0,0,0,0
	c0.6,0,1.2,0.1,1.7,0c0.4-0.1,0.8-0.3,1-0.6c0.6-0.7,0.3-2.4-0.4-3C249.1,315.8,246.4,315.8,245.2,317.1z"/>
<path class="st0" d="M195.8,319.2c-1.6-0.6-3.2-0.2-4.1,1.3c-1.5,2.3-1.4,4.2,0.3,6.7c0.5,0.7,1.2,0.8,2.2,0.8
	c0.2-0.1,0.8-0.2,1.1-0.5c1.2-1.3,2.2-2.7,2.5-4.4C198.1,321.4,197.2,319.7,195.8,319.2z"/>
<g>
	<path class="st1" d="M92.6,302.1c-1.6-1.2-3.3-2.1-5.2-2.2c-2.6-0.2-5.2-0.1-7.7,0c-0.9,0.1-1.9,0.6-2.8,1
		c-0.8,0.4-1.1,1.1-1.1,2.1c0,2.5-0.1,5-0.1,7.5c0,5.1,0.1,10.1,0.2,15.2c0,0.6,0,1.2,0.2,1.7c0.4,1.6,0.5,3.1,0.3,4.7
		c0,0.2,0,0.5,0,0.7c0.1,1,0.5,1.5,1.5,1.6c0.8,0.1,1.7,0.1,2.5,0.1c1.7,0,2.2-0.4,2.5-2.1c0.5-2.4,0.7-4.8,0.6-7.2
		c-0.1-1.3-0.2-2.7-0.2-4c0-1.7,0.5-2.3,2.1-2.5c1.5-0.2,3-0.4,4.4-0.6c2.1-0.4,3.6-1.6,4.5-3.5c1.2-2.4,1.3-5,0.9-7.5
		C94.8,305.2,94.2,303.3,92.6,302.1z M89.2,310.1c-0.3,0.5-0.7,0.9-1.1,1.5c-1.1,0.1-2.1,0.2-3.1,0.2c-1.4,0-2.1-0.5-2.3-1.8
		c-0.2-1.1-0.2-2.1-0.2-3.2c0-0.3,0.4-0.9,0.7-0.9c2.1-0.3,4.1-0.3,5.8,1.3C89.9,308.2,90,308.9,89.2,310.1z"/>
	<path class="st1" d="M174.1,314.7c-1.2-0.9-2.6-1.6-4.1-1.6c-1.8,0-3.6-0.1-5.4,0.8c-0.9,0.5-1.3,0.2-1.9-0.6
		c-0.1-0.1-0.2-0.3-0.3-0.4c-0.6-1-1.5-1.3-2.6-1.1c-1,0.1-2,0.3-3,0.5c-1.2,0.2-1.7,0.8-1.6,2.1c0.1,1.3,0.2,2.6,0.3,4
		c0,1.2-0.1,2.5-0.1,3.7c0,4.7,0,9.5,0.1,14.2c0,0.6-0.1,1.2,0.1,1.7c0.3,1.6,0.5,3.3,0.2,4.9c-0.2,1.1,0.4,1.7,1.5,1.8
		c1.2,0.1,2.5,0.1,3.7,0c0.8,0,1.3-0.4,1.4-1.2c0.1-0.6,0.1-1.2,0.1-1.7c0-1.3,0-2.7,0-4h0c0-1,0-2,0-3c0-0.7-0.1-1.5,0-2.2
		c0.1-0.9,0.5-1.3,1.4-1.4c0.2,0,0.5-0.1,0.7,0c2.1,0.3,4.1-0.3,6.2-0.8c3.1-0.8,4.8-2.8,5.3-5.9c0.3-2.1,0-4.1-0.1-6.2
		C176,316.7,175.3,315.6,174.1,314.7z M168.6,324.3c-1,0.7-2.1,1.1-3.2,1.2c-1.4,0.1-2.6-0.8-2.8-2.2c-0.1-0.5-0.1-1-0.1-1.6
		c0-0.1,0-0.4,0-0.6c0.1-1.2,0.4-1.6,1.6-1.8c1.2-0.2,2.5-0.2,3.7,0.2c1.1,0.4,1.8,1.1,2,2.3C169.9,322.9,169.4,323.7,168.6,324.3z"
		/>
	<path class="st1" d="M123.1,310.3c-1.2-0.1-2.5-0.2-3.7-0.2c-2.7,0.1-2.9,0.4-2.8,3.2c0,0.2,0,0.3,0,0.5c0,3.4,0.2,6.8-0.6,10.2
		c-0.2,0.9-0.5,1.7-1.4,2.3c-0.5,0.3-0.9,0.8-1.3,1.1c-0.8,0.6-1.5,0.6-2.3,0.1c-1.2-0.8-2.1-1.8-2.1-3.4c-0.1-3.6-0.2-7.1,0-10.7
		c0.1-1.3-0.5-1.9-1.7-1.9c-1.1,0-2.1,0-3.2,0c-1.2,0-1.7,0.4-1.7,1.6c0,1.6,0,3.2-0.1,4.7c0,1.2-0.3,2.5-0.2,3.7
		c0.1,1.9,0.2,3.8,0.4,5.7c0.3,3.3,2.9,6.4,6.1,7.1c1.9,0.4,3.9,0.5,5.9-0.1c0.8-0.2,1.7-0.4,2.4-0.2c1.6,0.6,3.3,0.4,4.9,0.7
		c1.5,0.2,2.1-0.5,2.1-2c0-6.4,0-12.8-0.1-19.2C123.7,312.4,123.8,311.4,123.1,310.3z"/>
	<path class="st1" d="M308,310.1c-1.5-0.1-3-0.1-4.5-0.1c-0.1,0-0.3,0.2-0.6,0.4c0,0.5,0,1,0,1.5c0,3.1,0,6.2-0.1,9.2
		c0,1.9-1,3.5-2,5c-0.4,0.6-1.3,1-2,1.4c-0.6,0.3-1.3,0.1-1.9-0.3c-1.3-1.1-2.3-2.4-2.2-4.2c0-1.7,0-3.5,0-5.2
		c0-1.6-0.3-3.1,0.3-4.7c0.2-0.6-0.2-1.1-0.8-1.4c-0.4-0.2-0.8-0.3-1.2-0.3c-1.1-0.1-2.1-0.1-3.2-0.1c-0.8,0-1.5,0.4-1.5,1.3
		c-0.2,2-0.3,4-0.4,6c-0.1,1.8,0.1,3.7,0,5.5c-0.1,2.1,0.3,4,1.3,5.8c1.6,2.9,3.9,4.7,7.4,4.6c0.2,0,0.5,0,0.7,0
		c1.2,0.2,2.3,0.2,3.4-0.5c0.6-0.4,1.3-0.3,1.9,0c1.8,0.9,3.8,0.5,5.6,0.6c0.8,0.1,1.2-0.5,1.2-1.3c0-0.2,0-0.3,0-0.5
		c0.1-5.7,0.1-11.5,0.2-17.2c0-1.2,0.1-2.3,0-3.5C309.7,310.6,309.4,310.2,308,310.1z"/>
	<path class="st1" d="M283.6,303.3c-1.5-2.1-3.6-3.5-6.3-3.5c-1.5,0-3,0-4.5,0c-1.4,0-2.6,0.5-3.7,1.2c-1.9,1.3-2.9,3.2-3.2,5.4
		c-0.4,2.2-0.7,4.4-0.3,6.7c0.1,0.8,0.2,1.7-0.5,2.5c-0.2,0.1-0.6,0.2-0.9,0.2c-0.3,0.1-0.7,0.1-1,0.2c-1.3,0.4-1.6,1.4-0.7,2.5
		c0.3,0.3,0.6,0.6,1,0.7c1.5,0.4,1.8,1.5,1.8,2.9c0,3.6,0.1,7.1,0.1,10.7c0,0.2,0,0.3,0.1,0.5c0.2,0.6,0.5,1.1,1.2,1.1
		c1.5,0,3,0.1,4.5-0.1c0.9-0.1,1.4-0.8,1.5-1.7c0-0.5,0-1-0.1-1.5c-0.5-3.1-0.3-6.3-0.4-9.5c0-2.2,0.7-2.8,2.9-2.6
		c0.5,0.1,1,0.1,1.5,0.1c0.8-0.1,1.4-0.9,1.4-1.8c0-0.7-0.6-1.3-1.5-1.4c-0.5,0-1,0-1.5,0.1c-0.4,0-0.8,0.1-1.2,0
		c-1.1-0.1-1.5-0.6-1.5-1.6c0.1-1.4,0.3-2.8,0.5-4.2c0.2-1.1,0.6-2.3,1.1-3.3c0.5-1.2,1.6-1.4,2.7-0.7c1,0.7,1.7,1.5,2,2.7
		c0.1,0.5,0.1,1,0.2,1.5c0.2,0.8,0.6,1.1,1.4,1.1c0.7,0,1.5-0.1,2.2-0.2c1.5-0.1,2-0.6,2-2.2c0-1.3-0.1-2.7-0.2-4
		C284.2,304.5,283.9,303.8,283.6,303.3z"/>
	<path class="st1" d="M200.6,313.6c-2-1.2-4.1-2.3-6.6-1.9c-0.6,0.1-1.2,0-1.7,0c-3.3,0.2-6.7,2.3-7.5,6.2c-0.2,1.2-0.6,2.4-0.9,3.6
		c-0.1,0.6-0.1,1.2-0.2,1.7c-0.1,2.2,0.4,4.3,1,6.4c0.6,1.8,1.8,3.1,3.7,3.8c1.9,0.8,3.9,0.7,5.9,0.7c0.6,0,1.2,0,1.7,0
		c2.9,0.3,4.8-1.1,6.1-3.5c1.3-2.5,2-5.2,2.1-8.1c0.1-2.2-0.3-4.3-1.3-6.3C202.4,315.2,201.6,314.3,200.6,313.6z M197.9,323
		c-0.3,1.8-1.3,3.2-2.5,4.4c-0.3,0.3-0.9,0.4-1.1,0.5c-1,0-1.7-0.1-2.2-0.8c-1.7-2.4-1.8-4.3-0.3-6.7c1-1.5,2.5-1.9,4.1-1.3
		C197.2,319.7,198.1,321.4,197.9,323z"/>
	<path class="st1" d="M221.2,313.4c0.5,0,1,0,1.5,0.2c0.7,0.3,1.3,0.8,1.9,1.2c0.8,0.6,1.7,0.7,2.6,0.2c1.2-0.7,2.5-1.4,2.6-2.8
		c0.2-1.6-1.2-2.4-2.4-3.3c-0.1-0.1-0.3-0.2-0.4-0.2c-2.8-1.4-5.7-1.8-8.7-0.6c-3.2,1.2-4.8,3.4-4.9,6.8c0,0.4,0,0.8,0,1.2
		c-0.1,2.6,1.2,4.2,3.3,5.4c1.7,1,3.4,2.1,5,3.3c0.8,0.6,1.1,1.4,1,2.4c-0.1,0.6-0.6,1.1-1.2,1c-1.2-0.1-2.3-0.4-2.9-1.6
		c-0.5-1.2-1.5-1.5-2.7-1.4c-0.9,0-1.8,0-2.7,0.1c-1,0.1-1.6,0.7-1.3,1.7c0.3,1.2,0.7,2.4,1.2,3.5c1.2,2.5,3,4.1,6,4
		c0.5,0,1,0,1.5,0c0,0,0,0.1,0,0.1c0.6,0,1.2,0,1.7,0c1.7,0.2,3-0.6,4.3-1.7c1.9-1.7,2.3-3.9,2.4-6.3c0.1-3.1-1.2-5.3-3.7-6.9
		c-0.2-0.1-0.4-0.3-0.6-0.4c-1-0.5-2.1-1.1-3.1-1.6c-1.2-0.6-1.7-1.5-1.7-2.8C220,313.9,220.5,313.4,221.2,313.4z"/>
	<path class="st1" d="M254.7,313.6c-1.9-1.1-3.8-2-6.1-1.9c-0.6,0-1.2,0.1-1.7,0c-2.2-0.3-4.1,0.4-6,1.4c-1.9,1-3.2,2.4-3.8,4.7
		c-0.7,3.1-0.6,6.1,0,9.1c0.3,1.5,0.9,2.6,1.8,3.7c1,1.1,2.1,1.9,3.4,2.4c3.7,1.5,7.5,1.4,11.2,0c1.7-0.6,2.1-1.3,1.8-3.1
		c-0.3-2.2-1.1-2.7-2.9-2.4c-0.5,0.1-1,0.2-1.5,0.2c-1,0-2,0.1-3,0c-1.6-0.1-2.8-0.9-3.9-2c-0.6-0.7-0.8-1.7-0.4-2.6
		c0.4-0.8,1.2-0.7,2-0.7c0.2,0,0.3,0,0.5,0.1c1.7,0.1,3.3,0.2,5,0.3c0-0.1,0-0.1,0-0.2c1,0,2,0.1,3,0.1c1.8,0.1,2.9-0.7,3.1-2.5
		c0.1-1.1,0.1-2.2-0.1-3.2C256.9,315.7,256.1,314.3,254.7,313.6z M250.8,319.9c-0.2,0.3-0.6,0.5-1,0.6c-0.6,0.1-1.1,0-1.7,0
		c0,0,0,0,0,0c-0.6,0-1.2,0-1.7-0.1c-0.8-0.1-1.5-0.3-1.7-1.2c-0.2-0.9-0.1-1.7,0.6-2.3c1.2-1.2,4-1.3,5.2-0.1
		C251.1,317.6,251.4,319.2,250.8,319.9z"/>
	<path class="st1" d="M147.1,310.2c-1,0-2,0.1-3,0c-1.1,0-2.1,0.2-3,0.9c-1.3,0.9-2.3,0.7-3.6-0.4c-0.6-0.5-1.2-0.8-2-0.8
		c-0.7,0.1-1.5,0-2.2,0c-0.7,0-1.5,0.1-2.3,0.2c0.1,2.2,0.2,4,0.3,5.8c0,2.4,0,4.8,0,7.2c-0.1,3.2,0.3,6.5-0.2,9.7
		c-0.1,0.9,0.3,1.4,1.2,1.5c1.2,0.1,2.5,0.1,3.7,0.1c1.3,0,1.8-0.4,1.7-1.8c0-2.8-0.1-5.6-0.2-8.5c0-1.1,0.1-2.1,0.9-3
		c0.5-0.5,0.8-1.2,1.3-1.8c0.4-0.5,0.9-1.1,1.4-1.3c1.9-0.7,3.7-1.8,6-1.2c1.3,0.4,2.1-0.3,2.1-1.7c0-1.2-0.1-2.3-0.3-3.5
		C148.8,310.6,148.3,310.2,147.1,310.2z"/>
	<path class="st1" d="M323.5,301.2c-1.4-0.2-2.8-0.3-4.2-0.4c-1.2-0.1-1.7,0.6-1.7,1.9c0,0.7,0.1,1.5,0,2.2
		c-0.1,1.2-0.2,2.5-0.3,3.7c-0.1,8.1,0.2,16.1-0.2,24.2c-0.1,1.1,0.5,1.7,1.6,1.7c1.2,0,2.5,0,3.7,0c1.3,0,1.8-0.5,1.8-1.9
		c0-5,0-10,0-15l0,0c0-5.1,0.1-10.1,0.1-15.2C324.5,301.8,324.1,301.3,323.5,301.2z"/>
</g>
<path class="st2" d="M204.6,112.5c1.8,1.2,3.3,1.8,5.1,2.1c0.4,0.1,0.9-0.2,1.2-0.4c0.6-0.6,1-1.3,1.7-2.4
	C209.7,111.6,207.4,111.7,204.6,112.5z"/>
<path class="st2" d="M240.7,206.5c0.9-1.8,1.9-3.6,3-5.3c1.4-2.3,3-4.5,4.5-6.8c0.2-0.4,0.3-0.8,0.6-1.4c-0.7,0.2-1.1,0.2-1.4,0.4
	c-0.8,0.4-1.6,0.8-2.4,1.1c-1.8,0.8-3.5,1.2-5.1-0.6c-0.2-0.3-0.9-0.3-1.4-0.3c-0.6,0.1-1.1,0.3-1.6,0.5c-1.2,0.6-2.2,0.3-3-0.6
	c-0.7-0.8-1.4-0.7-2.3-0.5c-4,0.9-7.9,2-11.9,2.6c-3,0.5-5.2,2.1-7.4,3.9c-1.5,1.3-3,2.2-4.8,2.6c-2.3,0.5-4.5,1-6.8,1.5
	c-0.6,0.1-1.1,0.1-1.7,0c-2.2-0.1-3.9-1.3-5.8-2.1c-2.7-1.3-5.6-2.3-8.4-3.2c-2.7-0.9-5.6-1.4-8.3-2.5c-2.6-1-5.1-2.5-7.6-3.9
	c-1.9-1.1-4-1-6-1.8c-0.2,1.8-0.4,3.4-0.5,4.9c-0.6,7.6-1,15.3-1.7,22.9c-0.5,5.5-1.1,11.1-1.9,16.6c-0.7,5-1.6,10-2.6,14.9
	c-1,5.1-2.2,10.2-3.4,15.3c-0.3,1.2-0.5,2.5-0.7,3.7c0.3,0.2,0.5,0.3,0.6,0.3c3.6-0.2,7.2-0.3,10.8-0.5c0.7,0,1.2-0.5,1.2-1.3
	c0-0.4,0.1-0.8,0.1-1.2c-0.1-8.1-0.3-16.3-0.4-24.4c-0.1-3.8-0.2-7.5,0-11.3c0.1-2.1,0.5-4.1,0.9-6.2c0.3-1.8,1.6-2.8,3.3-3.2
	c1.9-0.5,3.7-1,5.6-1.2c5.9-0.5,11.8-1,17.7-1.3c4.2-0.2,8.5-0.2,12.7-0.4c3.8-0.1,7.7-0.3,11.5-0.6c5.8-0.5,11.5-1.5,17.3-1.6
	c0.6,0,1.2-0.1,1.7-0.1c0.8,0,1.3-0.4,1.6-1.1C238,211.7,239.3,209.1,240.7,206.5z"/>
<path class="st2" d="M163.8,177.6c0.7,0.5,1.4,1,2.2,1.3c3.3,1.5,6.6,3.1,9.9,4.6c0.6,0.3,1.2,0.6,2.3,1.1c-0.4-3.1-0.8-5.7-1.2-8.3
	c-0.1-0.8-0.7-1.2-1.5-1.2c-2.6-0.1-5.2-0.2-7.8-0.3c-1.3-0.1-2.5-0.2-3.8-0.2c-1.2,0-1.6,0.5-1.1,1.7
	C163,176.7,163.4,177.2,163.8,177.6z"/>
<path class="st2" d="M265.7,251.9c0-3.1,0-6.3,0.1-9.4c0.1-4.7,0.3-9.4,0.4-14.1c0.1-2.4,0.5-4.7,0.1-7.1c-0.1,0-0.3-0.1-0.4-0.1
	c-0.8,1.2-1.7,2.4-2.4,3.8c-3.5,6.4-6.7,13-10.8,19c-1,1.5-1.7,3-1.7,4.9c0.1,5.4,0,10.8,0.1,16.2c0,0.4,0,0.8,0,1.3
	c1.7,0.5,3.4,0.9,5.2,1.3c0.8,0.2,1.8,0.2,2.5-0.2c2.2-1.1,4.6-1.4,6.9-1.4C265.7,261.4,265.7,256.6,265.7,251.9z"/>
<path class="st2" d="M82.8,283.9c1.3-0.4,2.4-1.1,3.6-1.8c1.5-1,1.6-1.5,0.6-3c-0.4-0.7-0.8-1.4-1.1-2.1c-0.5-1.2-0.3-1.6,0.8-2.3
	c2.7-1.6,5.7-2.6,8.8-2.9c3.6-0.3,7.2-0.6,10.7-0.9c2.8-0.2,5.7-0.4,8.5-0.6c1.7-0.1,1.8-0.3,2.1-1.9c2.1-10.4,2.3-20.8,1.8-31.4
	c-0.4-7.8-0.5-15.6,0.7-23.3c0.5-3.4,1.3-6.8,2.2-10.2c1.8-6.3,4.1-12.3,6.9-18.2c0.9-1.9,2.1-3.7,3.3-5.5c0.7-1.1,1.1-2.1,1-3.4
	c-0.2-1.2-0.3-2.4-0.6-3.6c-1.4-6.5-2.9-12.9-4.4-19.4c-0.3-1.4-0.4-1.6-2-1.7c-0.2,0-0.5,0-0.7,0c-3.4-0.2-4.5-1.3-4.8-4.8
	c-0.2-2.7-0.4-5.3-0.6-8c-0.6-5.4-1-10.9-0.9-16.3c0.1-6.1,0.5-12.2,2-18.1c0.6-2.4,1.3-4.9,2.4-7.1c1.4-2.9,3.4-5.5,6.5-7
	c0.3-0.1,0.5-0.3,0.8-0.4c3.5-0.9,7.1-1.3,10.7-0.5c1.7,0.4,3.4,1.1,5.2,1.6c0.6,0.2,1.2,0.2,1.9,0.2c2.4,0.2,4.7,0.3,7.1,0.7
	c1.9,0.3,2.3,1.1,1.4,2.8c-1,1.9-1.1,3.6-0.7,5.7c0.6,2.8,0,5.5-1.1,8c-0.6,1.3-0.6,2.6-0.2,3.9c0.2,0.7,0.4,1.3,0.5,2
	c0.5,3-0.9,5.4-2.6,7.7c-1.2,1.6-2.9,2.7-4.7,3.5c-1.4,0.6-2.1,1.6-2.4,3c-0.8,3.2-0.6,6.2,1.3,9c1.2,1.8,2.5,3.5,3.7,5.2
	c2.2,3.1,4.4,6.1,5.6,9.8c0.8,2.4,1.9,4.6,2.8,6.9c0.4,0.9,0.9,1.6,1.8,2c3.9,1.6,7.7,3.2,12,3.2c0.6,0,1.1,0.3,1.7,0.4
	c0.6,0.1,1.1-0.2,1-0.8c0-1-0.2-2.1-0.3-3.1c-0.3-2-0.6-3.9-0.9-5.9c-0.2-1.2,0.2-2.1,1.3-2.6c0.7-0.3,1.4-0.7,2.1-0.8
	c3.5-0.6,7.1-1.3,10.6-1.8c7.9-1,15.9-1.9,23.9-2.8c6.9-0.8,13.7-1.7,20.6-2.5c1.3-0.2,2.5-0.4,3.8-0.6c3.5-0.5,5,0.4,5.9,3.8
	c0.8,2.6,1.4,5.3,2,7.9c1.4,6.8,2.6,13.6,3.9,20.3c0.2,0.8,0.4,1.5,0.6,2.4c0.8-0.2,1.4-0.2,2-0.4c1.5-0.5,3-1,4.5-1.5
	c1.4-0.5,1.5-0.6,1.4-2c-0.2-3.9-0.4-7.8-0.8-11.6c-0.4-4.3-1.3-8.6-1.3-13c0-1.4-0.3-1.6-1.7-1.6c-1,0-2,0.1-2.9,0
	c-2.5-0.3-4.7-1.3-6.6-3.1c-3.1-2.9-6.3-5.7-9.5-8.4c-3.6-3.1-7.5-5.9-11.6-8.3c-4.5-2.6-8.9-5.3-13.7-7.2c-1.6-0.6-3.1-1.2-4.7-1.7
	c-3.9-1.2-7.4-3.3-10.9-5.4c0,0-0.1-0.1-0.1-0.1c-1.5-1.7-3.5-1.6-5.5-1.4c-1.1,0.1-2.2,0.3-3.3,0.3c-1.5,0-1.8-0.3-2.1-1.7
	c-1.1-6.5-2.3-13-3.4-19.6c-0.5-3-1-6-1.3-9c-0.3-3.6,0.3-4.9,4.1-5.6c5.6-1.2,11.3-2.2,16.9-3.1c4.5-0.7,9.1-1.3,13.6-1.7
	c3.3-0.3,6.6-0.2,9.9-0.2c1.7,0,2.8,0.8,3.6,2.3c1.1,2.1,1.7,4.3,2,6.6c0.6,4.4,1.1,8.9,1.7,13.3c0.4,3.6,0.9,7.1,1.3,10.7
	c0.3,2.5,0.1,2.8-2.2,3.9c-1.2,0.6-2.4,0.9-3.8,0.8c-1.7-0.1-3.3,0.3-5,0.4c-0.6,0.1-1.1,0.4-1.3,1c-0.2,0.5-0.4,1-0.6,1.4
	c-0.6,1.9-0.4,2.6,1.3,3.7c1.3,0.9,2.8,1.7,4.2,2.5c5,2.9,9.8,5.9,14.9,8.7c3.5,1.9,7.3,3.4,10.9,5.1c1.7,0.8,3.1,0.6,4.4-0.7
	c1.7-1.7,3.6-3.3,5.2-5.2c2.6-3,5.3-5.8,8.8-7.8c0.5-0.3,1-0.8,1.1-1.2c0.3-1.5,0.6-3.1,0.6-4.6c0-1.2-0.5-1.5-1.7-1.4
	c-0.6,0-1.1,0.2-1.7,0.2c-2.4,0.2-4.1-0.8-4.8-3.1c-0.8-2.5-1.4-5.1-2.2-7.7c-0.4-1.3-0.2-2.5,0.7-3.4c1.6-1.7,2.3-3.8,2.8-5.9
	c0.6-2.4,1.5-4.8,3-6.8c0.7-0.9,1.4-1.8,2.2-2.4c2.9-2.2,6.3-3.4,9.8-4.3c2.5-0.7,4.9-0.8,7.4-0.5c0.7,0.1,1.2-0.1,1.6-0.7
	c1.4-1.8,3.2-3,5.1-4.1c1.2-0.7,2.5-1.1,4-0.5c0.8,0.3,1.5,0.8,1.9,1.7c0.1,0.2,0.1,0.3,0.2,0.5c1.5,3.1,1,3,4.5,3.3
	c0.8,0.1,1.6,0.4,2.3,0.7c1.6,0.9,2.1,2.5,1.4,4.1c-0.4,0.8-0.8,1.7-1.3,2.5c-0.3,0.6-0.7,1.2-0.9,1.9c-0.5,1.4-0.4,2.1,0.8,3
	c1,0.8,2,1.4,3,2.1c2.3,1.7,2.3,2.8,0.1,4.6c-0.7,0.6-1.4,1.1-2.1,1.6c-1.1,0.8-1.4,1.7-0.9,3c0.3,1,0.4,2.1,0.4,3.2
	c0,0.7-0.3,1.4-0.6,2c-0.7,1.4-1.8,2.1-3.4,1.9c-1.4-0.2-2.7-0.3-3.6,1c-0.1,0.2-0.8,0.2-1.1,0.1c-1.3-0.5-2.5-1.1-3.8-1.7
	c-0.6-0.3-1.1-0.3-1.8,0c-1.6,0.9-3.3,1.7-5,2.4c-0.9,0.4-1.3,0.9-1.3,1.8c0,0.3,0,0.6,0,0.9c-0.2,2,0.7,3.5,2.5,4.3
	c1.8,0.9,3.3,2.1,4.6,3.6c2.4,2.6,3.8,5.6,3.7,9.1c-0.1,2.9-0.4,5.8-0.7,8.7c-0.6,5.2-1.2,10.4-1.9,15.5c-0.6,4.3-1.4,8.6-2.1,12.9
	c0,0.2-0.1,0.5-0.2,0.7c-1,1.3-0.9,2.7-0.7,4.2c0.5,2.6,0.8,5.3,1.5,7.8c2,6.8,3.3,13.8,3.9,20.8c0.4,4.6,0.2,9.3,0.1,13.9
	c-0.3,8.8-1.8,17.4-3,26.1c-0.8,6.1-1.4,12.3-1.8,18.5c0.8-0.2,1.5-0.5,2.3-0.8c1-0.4,2.3,0,3.4,0.4c2.3,0.8,4,2.4,5.5,4.3
	c1.4,1.8,2.9,3,5.5,2.8c1.9-0.1,3.7,0.8,5.8-0.1c1.1-0.5,2.1,0.6,2.6,1.6c1.4,2.9,2.8,5.8,3.9,8.9c0.5,1.3,1.1,2,2.4,2.1
	c0.9,0.1,1.8,0.1,2.7,0.1c3.8-0.1,7.4,0.5,10.8,2.3c0.3,0,0.6,0.1,0.9,0.1c2.3,0.4,4.6,0.7,6.9,1c1.6,0.2,2.6,1.2,3.6,2.3
	c0.1,0.1,0.1,0.1,0.1,0.2c1-1.4,2.1-2.8,3-4.2c11.2-15.9,17.7-33.3,19.9-52.4c1.5-13.4,3.1-26.8,4.1-40.2
	c0.9-11.8,1.4-23.7-0.4-35.6c-2.8-18.1-7-35.7-16.6-51.5c-3.1-5.1-5.5-10.7-8.7-15.7c-3.2-4.9-6.8-9.6-10.7-14
	c-6.6-7.5-13.7-14.5-20.4-21.9c-9.4-10.4-20.5-18.4-32.7-25c-9.3-5-19.2-8.8-29.2-12.2c-11.3-3.8-22.9-6.4-34.8-6.8
	c-12.8-0.5-25.4,0.5-38.1,2.5c-13.7,2.1-27.1,5-40,9.9c-10.7,4-21.1,8.9-30.9,14.8c-8,4.8-15.5,10.5-23.2,15.9
	c-1.7,1.2-3.2,2.6-4.7,3.9C73.6,61,65.8,71.1,58.6,81.6c-6.7,9.7-12.9,19.6-17.8,30.3c-6.9,15.3-9.2,31.8-12.9,47.9
	c-3.4,14.5-2.3,29.1-0.6,43.8c1.6,13.4,4.5,26.6,8.3,39.6c5.1,17,12.3,33,23.3,47c0.3,0.4,0.7,0.9,1.1,1.3c2.2-1.2,4.7-1.8,7.1-2.6
	C72.3,287.1,77.6,285.6,82.8,283.9z"/>
</svg>
